#N canvas 869 120 722 479 12;
#X obj 31 36 inlet;
#X obj 31 190 spigot;
#X obj 31 223 outlet;
#X obj 96 -19 loadbang;
#X obj 96 31 0;
#X obj 130 70 tgl 22 0 \$0-dud \$0-rdud empty 17 7 0 10 -262144 -262144
-262144 0 1;
#X obj 122 243 spigot;
#X msg 72 270 color 10 10 0;
#X obj 161 212 == 0;
#X obj 264 169 r newtogcolor;
#X obj 239 197 * 12;
#X msg 239 221 color \$1 \$1 0;
#X obj 293 22 inlet;
#X obj 293 61 spigot;
#X msg 293 85 color 0 0 0;
#X obj 111 3 r drumclear;
#X obj 199 5 r drumon;
#X obj 199 32 1;
#X obj 411 146 r on-\$1-\$2;
#X connect 0 0 1 0;
#X connect 0 0 6 0;
#X connect 1 0 2 0;
#X connect 3 0 4 0;
#X connect 4 0 5 0;
#X connect 5 0 1 1;
#X connect 5 0 8 0;
#X connect 5 0 10 0;
#X connect 6 0 7 0;
#X connect 7 0 5 0;
#X connect 8 0 6 1;
#X connect 8 0 13 1;
#X connect 9 0 10 1;
#X connect 10 0 11 0;
#X connect 11 0 5 0;
#X connect 12 0 13 0;
#X connect 13 0 14 0;
#X connect 14 0 5 0;
#X connect 15 0 4 0;
#X connect 16 0 17 0;
#X connect 17 0 5 0;
#X connect 18 0 5 0;
#X coords 0 -1 1 1 22 22 2 130 70;
