#N canvas 248 38 1123 614 10;
#X floatatom 167 503 5 0 0 0 - - - 0;
#X obj 167 526 s newtogcolor;
#X obj 60 117 cnv 15 527 256 empty c1 shadydrummer~ 16 24 0 15 #404040
#fcfcfc 0;
#X obj 349 128 tgl 20 0 start-toggle-s rdud empty 17 7 0 10 #202020
#f8fc00 #000000 0 1;
#X obj 476 128 bng 20 250 50 0 drumclear rdud empty 17 7 0 10 #0c4410
#00fc04 #fcfcfc;
#X msg 184 474 15;
#X obj 184 447 loadbang;
#N canvas 259 38 1166 777 drum-inst 0;
#N canvas 0 23 450 278 (subpatch) 0;
#X array Kick 6497 float 2;
#X coords 0 1 6497 -1 200 140 1 0 0;
#X restore 36 715 graph;
#X obj 66 193 soundfiler;
#X obj 66 29 loadbang;
#X floatatom 66 218 7 0 0 0 - - - 0;
#N canvas 0 23 450 278 (subpatch) 0;
#X array Snare 13585 float 2;
#X coords 0 1 13585 -1 200 140 1 0 0;
#X restore 240 715 graph;
#N canvas 0 22 450 278 (subpatch) 0;
#X array OpenHH 28003 float 2;
#X coords 0 1 28003 -1 200 140 1 0 0;
#X restore 36 872 graph;
#N canvas 0 23 450 278 (subpatch) 0;
#X array CloseHH 17254 float 2;
#X coords 0 1 17254 -1 200 140 1 0 0;
#X restore 240 872 graph;
#N canvas 0 22 450 278 (subpatch) 0;
#X array Cowbell 10368 float 2;
#X coords 0 1 10368 -1 200 140 1 0 0;
#X restore 444 715 graph;
#X obj 987 410 soundfiler;
#X obj 987 358 loadbang;
#X floatatom 987 434 5 0 0 0 - - - 0;
#N canvas 0 22 450 278 (subpatch) 0;
#X array Ride 18867 float 2;
#X coords 0 1 18867 -1 200 140 1 0 0;
#X restore 444 872 graph;
#N canvas 0 22 450 278 (subpatch) 0;
#X array Clap 11183 float 2;
#X coords 0 1 11183 -1 200 140 1 0 0;
#X restore 649 715 graph;
#N canvas 0 22 450 278 (subpatch) 0;
#X array Shake 13364 float 2;
#X coords 0 1 13364 -1 200 140 1 0 0;
#X restore 649 872 graph;
#X msg 66 56 read -resize ./samples/Kick1.WAV Kick, f 24;
#X msg 987 383 read -resize ./samples/Cowbell1.WAV Cowbell;
#X obj 13 70 r set2;
#X msg 66 89 read -resize ./samples/Kick2.WAV Kick, f 24;
#X obj 13 37 r set1;
#X obj 14 103 r set3;
#X msg 66 122 read -resize ./samples/Kick3.WAV Kick, f 24;
#X msg 66 155 read -resize ./samples/Kick4.WAV Kick, f 24;
#X obj 14 136 r set4;
#X obj 330 188 soundfiler;
#X obj 330 25 loadbang;
#X floatatom 330 213 7 0 0 0 - - - 0;
#X obj 278 65 r set2;
#X obj 278 32 r set1;
#X obj 279 98 r set3;
#X obj 279 131 r set4;
#X msg 330 51 read -resize ./samples/Snare1.WAV Snare, f 26;
#X msg 330 84 read -resize ./samples/Snare2.WAV Snare, f 26;
#X msg 330 117 read -resize ./samples/Snare3.WAV Snare, f 26;
#X msg 330 150 read -resize ./samples/Snare4.WAV Snare, f 26;
#X obj 608 190 soundfiler;
#X obj 608 21 loadbang;
#X floatatom 608 215 7 0 0 0 - - - 0;
#X obj 556 61 r set2;
#X obj 556 28 r set1;
#X obj 557 94 r set3;
#X obj 557 127 r set4;
#X msg 608 47 read -resize ./samples/OpenHH1.WAV OpenHH, f 28;
#X msg 608 80 read -resize ./samples/OpenHH2.WAV OpenHH, f 28;
#X msg 608 113 read -resize ./samples/OpenHH3.WAV OpenHH, f 28;
#X msg 608 146 read -resize ./samples/OpenHH4.WAV OpenHH, f 28;
#X obj 906 191 soundfiler;
#X obj 906 22 loadbang;
#X floatatom 906 216 5 0 0 0 - - - 0;
#X obj 854 62 r set2;
#X obj 854 29 r set1;
#X obj 855 95 r set3;
#X obj 855 128 r set4;
#X msg 906 48 read -resize ./samples/CloseHH1.WAV CloseHH, f 30;
#X msg 906 147 read -resize ./samples/CloseHH4.WAV CloseHH, f 30;
#X msg 906 114 read -resize ./samples/CloseHH3.WAV CloseHH, f 30;
#X msg 906 81 read -resize ./samples/CloseHH2.WAV CloseHH, f 30;
#X obj 93 542 soundfiler;
#X obj 93 373 loadbang;
#X floatatom 93 567 5 0 0 0 - - - 0;
#X obj 41 413 r set2;
#X obj 41 380 r set1;
#X obj 42 446 r set3;
#X obj 42 479 r set4;
#X msg 93 399 read -resize ./samples/Clap1.WAV Clap, f 30;
#X msg 93 432 read -resize ./samples/Clap2.WAV Clap, f 30;
#X msg 93 465 read -resize ./samples/Clap3.WAV Clap, f 30;
#X msg 93 498 read -resize ./samples/Clap4.WAV Clap, f 30;
#X obj 413 536 soundfiler;
#X obj 413 367 loadbang;
#X floatatom 413 561 5 0 0 0 - - - 0;
#X obj 361 407 r set2;
#X obj 361 374 r set1;
#X msg 413 393 read -resize ./samples/Shake1.WAV Shake, f 30;
#X msg 413 426 read -resize ./samples/Shake2.WAV Shake, f 30;
#X obj 728 535 soundfiler;
#X obj 728 366 loadbang;
#X floatatom 728 560 5 0 0 0 - - - 0;
#X obj 676 406 r set2;
#X obj 676 373 r set1;
#X obj 677 439 r set3;
#X obj 677 472 r set4;
#X msg 728 392 read -resize ./samples/Ride1.WAV Ride, f 30;
#X msg 728 425 read -resize ./samples/Ride2.WAV Ride, f 30;
#X msg 728 458 read -resize ./samples/Ride3.WAV Ride, f 30;
#X obj 811 508 r ride;
#X obj 811 536 spigot;
#X obj 811 560 t b;
#X obj 812 601 tabplay~ Ride;
#X obj 863 508 r ridemute;
#X obj 811 583 bng 15 250 50 0 empty empty empty 17 7 0 10 #fcfcfc
#000000 #000000;
#X obj 494 500 spigot;
#X obj 494 524 t b;
#X obj 494 547 bng 15 250 50 0 empty empty empty 17 7 0 10 #fcfcfc
#000000 #000000;
#X obj 494 472 r shake;
#X obj 552 472 r shakemute;
#X obj 495 565 tabplay~ Shake;
#X obj 178 567 spigot;
#X obj 178 591 t b;
#X obj 178 614 bng 15 250 50 0 empty empty empty 17 7 0 10 #fcfcfc
#000000 #000000;
#X obj 178 539 r clap;
#X obj 236 539 r clapmute;
#X obj 179 632 tabplay~ Clap;
#X obj 1088 455 spigot;
#X obj 1088 479 t b;
#X obj 1088 427 r cowbell;
#X obj 1149 446 r cowmute;
#X obj 1088 502 bng 15 250 50 0 empty empty empty 17 7 0 10 #fcfcfc
#000000 #000000;
#X obj 1089 526 tabplay~ Cowbell;
#X obj 123 249 spigot;
#X obj 123 272 t b;
#X obj 123 295 bng 15 250 50 0 empty empty empty 17 7 0 10 #fcfcfc
#000000 #000000;
#X obj 123 221 r kick;
#X obj 181 221 r kickmute;
#X obj 124 314 tabplay~ Kick;
#X obj 388 244 spigot;
#X obj 388 267 t b;
#X obj 388 290 bng 15 250 50 0 empty empty empty 17 7 0 10 #fcfcfc
#000000 #000000;
#X obj 388 216 r snare;
#X obj 446 216 r snaremute;
#X obj 389 309 tabplay~ Snare;
#X obj 674 244 spigot;
#X obj 674 267 t b;
#X obj 674 290 bng 15 250 50 0 empty empty empty 17 7 0 10 #fcfcfc
#000000 #000000;
#X obj 674 216 r openHH;
#X obj 737 215 r ohhmute;
#X obj 675 309 tabplay~ OpenHH;
#X obj 1011 218 spigot;
#X obj 1011 242 t b;
#X obj 1011 265 bng 15 250 50 0 empty empty empty 17 7 0 10 #fcfcfc
#000000 #000000;
#X obj 1011 190 r closeHH;
#X obj 1072 209 r chhmute;
#X obj 1012 289 tabplay~ CloseHH;
#X obj 125 337 throw~ drum-sum;
#X obj 390 332 throw~ drum-sum;
#X obj 676 332 throw~ drum-sum;
#X obj 1013 312 throw~ drum-sum;
#X obj 1090 549 throw~ drum-sum;
#X obj 813 624 throw~ drum-sum;
#X obj 496 588 throw~ drum-sum;
#X obj 180 655 throw~ drum-sum;
#X connect 1 0 3 0;
#X connect 2 0 14 0;
#X connect 8 0 10 0;
#X connect 9 0 15 0;
#X connect 14 0 1 0;
#X connect 15 0 8 0;
#X connect 16 0 17 0;
#X connect 17 0 1 0;
#X connect 18 0 14 0;
#X connect 19 0 20 0;
#X connect 20 0 1 0;
#X connect 21 0 1 0;
#X connect 22 0 21 0;
#X connect 23 0 25 0;
#X connect 24 0 30 0;
#X connect 26 0 31 0;
#X connect 27 0 30 0;
#X connect 28 0 32 0;
#X connect 29 0 33 0;
#X connect 30 0 23 0;
#X connect 31 0 23 0;
#X connect 32 0 23 0;
#X connect 33 0 23 0;
#X connect 34 0 36 0;
#X connect 35 0 41 0;
#X connect 37 0 42 0;
#X connect 38 0 41 0;
#X connect 39 0 43 0;
#X connect 40 0 44 0;
#X connect 41 0 34 0;
#X connect 42 0 34 0;
#X connect 43 0 34 0;
#X connect 44 0 34 0;
#X connect 45 0 47 0;
#X connect 46 0 52 0;
#X connect 48 0 55 0;
#X connect 49 0 52 0;
#X connect 50 0 54 0;
#X connect 51 0 53 0;
#X connect 52 0 45 0;
#X connect 53 0 45 0;
#X connect 54 0 45 0;
#X connect 55 0 45 0;
#X connect 56 0 58 0;
#X connect 57 0 63 0;
#X connect 59 0 64 0;
#X connect 60 0 63 0;
#X connect 61 0 65 0;
#X connect 62 0 66 0;
#X connect 63 0 56 0;
#X connect 64 0 56 0;
#X connect 65 0 56 0;
#X connect 66 0 56 0;
#X connect 67 0 69 0;
#X connect 68 0 72 0;
#X connect 70 0 73 0;
#X connect 71 0 72 0;
#X connect 72 0 67 0;
#X connect 73 0 67 0;
#X connect 74 0 76 0;
#X connect 75 0 81 0;
#X connect 77 0 82 0;
#X connect 78 0 81 0;
#X connect 79 0 83 0;
#X connect 81 0 74 0;
#X connect 82 0 74 0;
#X connect 83 0 74 0;
#X connect 84 0 85 0;
#X connect 85 0 86 0;
#X connect 86 0 89 0;
#X connect 87 0 137 0;
#X connect 88 0 85 1;
#X connect 89 0 87 0;
#X connect 90 0 91 0;
#X connect 91 0 92 0;
#X connect 92 0 95 0;
#X connect 93 0 90 0;
#X connect 94 0 90 1;
#X connect 95 0 138 0;
#X connect 96 0 97 0;
#X connect 97 0 98 0;
#X connect 98 0 101 0;
#X connect 99 0 96 0;
#X connect 100 0 96 1;
#X connect 101 0 139 0;
#X connect 102 0 103 0;
#X connect 103 0 106 0;
#X connect 104 0 102 0;
#X connect 105 0 102 1;
#X connect 106 0 107 0;
#X connect 107 0 136 0;
#X connect 108 0 109 0;
#X connect 109 0 110 0;
#X connect 110 0 113 0;
#X connect 111 0 108 0;
#X connect 112 0 108 1;
#X connect 113 0 132 0;
#X connect 114 0 115 0;
#X connect 115 0 116 0;
#X connect 116 0 119 0;
#X connect 117 0 114 0;
#X connect 118 0 114 1;
#X connect 119 0 133 0;
#X connect 120 0 121 0;
#X connect 121 0 122 0;
#X connect 122 0 125 0;
#X connect 123 0 120 0;
#X connect 124 0 120 1;
#X connect 125 0 134 0;
#X connect 126 0 127 0;
#X connect 127 0 128 0;
#X connect 128 0 131 0;
#X connect 129 0 126 0;
#X connect 130 0 126 1;
#X connect 131 0 135 0;
#X restore 274 418 pd drum-inst;
#X obj 452 128 bng 20 250 50 0 drumon rdud empty 17 7 0 10 #541010
#fc0400 #000000;
#X obj 375 128 nbx 3 20 1 208 0 0 tempo-value-s tempo-value-r empty
0 -8 0 15 #202020 #9c9c9c #fcfcfc 0 256;
#X obj 254 128 hradio 20 1 0 4 setswitch rdud empty 0 -8 0 10 #202020
#b8b8b8 #000000 0;
#X floatatom 65 416 5 0 0 0 - - - 0;
#X obj 65 439 sel 0 1 2 3;
#X obj 65 538 s set1;
#X obj 80 514 s set2;
#X obj 96 492 s set3;
#X obj 112 469 s set4;
#X obj 167 416 random 100;
#X obj 500 128 bng 20 250 50 0 colorchange rdud empty 17 7 0 10 #101054
#0400fc #000000;
#X obj 65 391 r setswitch;
#X obj 167 392 r colorchange;
#N canvas 313 89 879 639 counter 0;
#X floatatom 342 81 5 0 0 0 - - - 0;
#X obj 84 66 tgl 15 0 empty empty empty 17 7 0 10 #fcfcfc #000000 #000000
0 1;
#X obj 84 213 s on-off;
#X obj 166 247 metro;
#X obj 532 44 loadbang;
#X msg 532 71 140;
#X obj 166 271 t b b;
#X obj 166 310 f;
#X floatatom 166 334 5 0 0 0 - - - 0;
#X obj 220 308 + 1;
#X obj 220 332 %;
#X obj 84 42 r start-toggle-s;
#X obj 269 303 16;
#X obj 342 53 r tempo-value-s;
#X obj 532 99 s tempo-value-r;
#X obj 209 221 expr 60000/$f1;
#X obj 84 86 t f f f;
#X obj 290 159 * 4;
#X obj 66 376 s count;
#X obj 107 438 s counter-num;
#X msg 78 272 0;
#X obj 240 514 s bar-num;
#X obj 239 425 f;
#X floatatom 239 449 5 0 0 0 - - - 0;
#X obj 293 423 + 1;
#X obj 293 447 %;
#X obj 342 418 64;
#X obj 321 267 s central-tempo;
#X connect 0 0 17 0;
#X connect 1 0 16 0;
#X connect 3 0 6 0;
#X connect 4 0 5 0;
#X connect 5 0 14 0;
#X connect 6 0 7 0;
#X connect 6 0 22 0;
#X connect 6 1 12 0;
#X connect 6 1 26 0;
#X connect 7 0 8 0;
#X connect 7 0 9 0;
#X connect 8 0 18 0;
#X connect 8 0 19 0;
#X connect 9 0 10 0;
#X connect 10 0 7 1;
#X connect 11 0 1 0;
#X connect 12 0 10 1;
#X connect 13 0 0 0;
#X connect 15 0 3 1;
#X connect 15 0 27 0;
#X connect 16 0 2 0;
#X connect 16 2 3 0;
#X connect 17 0 15 0;
#X connect 20 0 7 0;
#X connect 20 0 8 0;
#X connect 22 0 23 0;
#X connect 22 0 24 0;
#X connect 23 0 21 0;
#X connect 24 0 25 0;
#X connect 25 0 22 1;
#X connect 26 0 25 1;
#X restore 274 392 pd counter;
#X obj 72 215 cnv 15 502 24 empty c1 OpenHH 45 11 0 12 #202020 #fcfcfc
0;
#X obj 72 161 cnv 15 502 28 empty c1 Kick 45 18 0 12 #202020 #fcfcfc
0;
#X obj 72 190 cnv 15 502 24 empty c1 Snare 45 11 0 12 #202020 #fcfcfc
0;
#X obj 72 240 cnv 15 502 24 empty c1 CloseHH 45 11 0 12 #202020 #fcfcfc
0;
#X obj 72 265 cnv 15 502 24 empty c1 Cowbell 45 11 0 12 #202020 #fcfcfc
0;
#X obj 72 290 cnv 15 502 24 empty c1 Clap 45 11 0 12 #202020 #fcfcfc
0;
#X obj 72 315 cnv 15 502 24 empty c1 Ride 45 11 0 12 #202020 #fcfcfc
0;
#X obj 72 340 cnv 15 502 24 empty c1 Shake 45 11 0 12 #202020 #fcfcfc
0;
#X obj 19 336 tgl 15 0 ridemute empty empty 17 7 0 10 #fcfcfc #000000
#000000 0 1;
#X obj 75 291 simplecolortog;
#X obj 75 64 loadbang;
#X obj 75 316 simplecolortog;
#X obj 75 166 simplecolortog;
#X obj 75 191 simplecolortog;
#X obj 75 216 simplecolortog;
#X obj 75 241 simplecolortog;
#X obj 75 266 simplecolortog;
#X obj 75 341 simplecolortog;
#X obj 20 311 tgl 15 0 clapmute empty empty 17 7 0 10 #fcfcfc #000000
#000000 0 1;
#X msg 75 88 1;
#X obj 19 361 tgl 15 0 shakemute empty empty 17 7 0 10 #fcfcfc #000000
#000000 0 1;
#X obj 20 261 tgl 15 0 chhmute empty empty 17 7 0 10 #fcfcfc #000000
#000000 0 1;
#X obj 20 236 tgl 15 0 ohhmute empty empty 17 7 0 10 #fcfcfc #000000
#000000 0 1;
#X obj 20 286 tgl 15 0 cowmute empty empty 17 7 0 10 #fcfcfc #000000
#000000 0 1;
#X obj 20 211 tgl 15 0 snaremute empty empty 17 7 0 10 #fcfcfc #000000
#000000 0 1;
#X obj 19 186 tgl 15 0 kickmute empty empty 17 7 0 10 #fcfcfc #000000
#000000 0 1;
#X obj 554 128 tgl 20 0 dud rdud empty 17 7 0 10 #e8e828 #e8e828 #fcfcfc
0 1;
#X msg 375 91 100;
#X obj 572 63 * 15;
#X msg 572 85 color \$1 \$1 0;
#X obj 174 164 colortog 1 1;
#X obj 199 164 colortog 1 2;
#X obj 224 164 colortog 1 3;
#X obj 249 164 colortog 1 4;
#X obj 274 164 colortog 1 5;
#X obj 299 164 colortog 1 6;
#X obj 324 164 colortog 1 7;
#X obj 349 164 colortog 1 8;
#X obj 374 164 colortog 1 9;
#X obj 399 164 colortog 1 10;
#X obj 424 164 colortog 1 11;
#X obj 449 164 colortog 1 12;
#X obj 474 164 colortog 1 13;
#X obj 499 164 colortog 1 14;
#X obj 524 164 colortog 1 15;
#X obj 549 164 colortog 1 16;
#X obj 174 189 colortog 2 1;
#X obj 199 189 colortog 2 2;
#X obj 224 189 colortog 2 3;
#X obj 249 189 colortog 2 4;
#X obj 274 189 colortog 2 5;
#X obj 299 189 colortog 2 6;
#X obj 324 189 colortog 2 7;
#X obj 349 189 colortog 2 8;
#X obj 374 189 colortog 2 9;
#X obj 399 189 colortog 2 10;
#X obj 424 189 colortog 2 11;
#X obj 449 189 colortog 2 12;
#X obj 474 189 colortog 2 13;
#X obj 499 189 colortog 2 14;
#X obj 524 189 colortog 2 15;
#X obj 549 189 colortog 2 16;
#X obj 174 214 colortog 3 1;
#X obj 199 214 colortog 3 2;
#X obj 224 214 colortog 3 3;
#X obj 249 214 colortog 3 4;
#X obj 274 214 colortog 3 5;
#X obj 299 214 colortog 3 6;
#X obj 324 214 colortog 3 7;
#X obj 349 214 colortog 3 8;
#X obj 374 214 colortog 3 9;
#X obj 399 214 colortog 3 10;
#X obj 424 214 colortog 3 11;
#X obj 449 214 colortog 3 12;
#X obj 474 214 colortog 3 13;
#X obj 499 214 colortog 3 14;
#X obj 524 214 colortog 3 15;
#X obj 549 214 colortog 3 16;
#X obj 174 239 colortog 4 1;
#X obj 199 239 colortog 4 2;
#X obj 224 239 colortog 4 3;
#X obj 249 239 colortog 4 4;
#X obj 274 239 colortog 4 5;
#X obj 299 239 colortog 4 6;
#X obj 324 239 colortog 4 7;
#X obj 349 239 colortog 4 8;
#X obj 374 239 colortog 4 9;
#X obj 399 239 colortog 4 10;
#X obj 424 239 colortog 4 11;
#X obj 449 239 colortog 4 12;
#X obj 474 239 colortog 4 13;
#X obj 499 239 colortog 4 14;
#X obj 524 239 colortog 4 15;
#X obj 549 239 colortog 4 16;
#X obj 174 264 colortog 5 1;
#X obj 199 264 colortog 5 2;
#X obj 224 264 colortog 5 3;
#X obj 249 264 colortog 5 4;
#X obj 274 264 colortog 5 5;
#X obj 299 264 colortog 5 6;
#X obj 324 264 colortog 5 7;
#X obj 349 264 colortog 5 8;
#X obj 374 264 colortog 5 9;
#X obj 399 264 colortog 5 10;
#X obj 424 264 colortog 5 11;
#X obj 449 264 colortog 5 12;
#X obj 474 264 colortog 5 13;
#X obj 499 264 colortog 5 14;
#X obj 524 264 colortog 5 15;
#X obj 549 264 colortog 5 16;
#X obj 174 289 colortog 6 1;
#X obj 199 289 colortog 6 2;
#X obj 224 289 colortog 6 3;
#X obj 249 289 colortog 6 4;
#X obj 274 289 colortog 6 5;
#X obj 299 289 colortog 6 6;
#X obj 324 289 colortog 6 7;
#X obj 349 289 colortog 6 8;
#X obj 374 289 colortog 6 9;
#X obj 399 289 colortog 6 10;
#X obj 424 289 colortog 6 11;
#X obj 449 289 colortog 6 12;
#X obj 474 289 colortog 6 13;
#X obj 499 289 colortog 6 14;
#X obj 524 289 colortog 6 15;
#X obj 549 289 colortog 6 16;
#X obj 174 314 colortog 7 1;
#X obj 199 314 colortog 7 2;
#X obj 224 314 colortog 7 3;
#X obj 249 314 colortog 7 4;
#X obj 274 314 colortog 7 5;
#X obj 299 314 colortog 7 6;
#X obj 324 314 colortog 7 7;
#X obj 349 314 colortog 7 8;
#X obj 374 314 colortog 7 9;
#X obj 399 314 colortog 7 10;
#X obj 424 314 colortog 7 11;
#X obj 449 314 colortog 7 12;
#X obj 474 314 colortog 7 13;
#X obj 499 314 colortog 7 14;
#X obj 524 314 colortog 7 15;
#X obj 549 314 colortog 7 16;
#X obj 174 339 colortog 8 1;
#X obj 199 339 colortog 8 2;
#X obj 224 339 colortog 8 3;
#X obj 249 339 colortog 8 4;
#X obj 274 339 colortog 8 5;
#X obj 299 339 colortog 8 6;
#X obj 324 339 colortog 8 7;
#X obj 349 339 colortog 8 8;
#X obj 374 339 colortog 8 9;
#X obj 399 339 colortog 8 10;
#X obj 424 339 colortog 8 11;
#X obj 449 339 colortog 8 12;
#X obj 474 339 colortog 8 13;
#X obj 499 339 colortog 8 14;
#X obj 524 339 colortog 8 15;
#X obj 549 339 colortog 8 16;
#X obj 671 148 sel 0 1 2 3 4 5 6 7 8 9 10 11 12 13 14 15;
#X obj 603 211 s snare;
#X obj 671 173 sel 0 1 2 3 4 5 6 7 8 9 10 11 12 13 14 15;
#X obj 603 186 s kick;
#X obj 671 198 sel 0 1 2 3 4 5 6 7 8 9 10 11 12 13 14 15;
#X obj 602 236 s openHH;
#X obj 671 223 sel 0 1 2 3 4 5 6 7 8 9 10 11 12 13 14 15;
#X obj 602 261 s closeHH;
#X obj 671 273 sel 0 1 2 3 4 5 6 7 8 9 10 11 12 13 14 15;
#X obj 671 248 sel 0 1 2 3 4 5 6 7 8 9 10 11 12 13 14 15;
#X obj 602 311 s clap;
#X obj 602 286 s cowbell;
#X obj 670 323 sel 0 1 2 3 4 5 6 7 8 9 10 11 12 13 14 15;
#X obj 671 298 sel 0 1 2 3 4 5 6 7 8 9 10 11 12 13 14 15;
#X obj 602 336 s ride;
#X obj 602 361 s shake;
#X obj 671 122 r counter-num;
#X msg 959 95 \; drumon 0 \; on-1-1 1 \; on-1-3 1 \; on-1-11 1 \; on-1-12
1 \; on-1-14 1 \; on-2-5 1 \; on-2-13 1 \; on-3-1 1 \; on-3-11 1 \;
on-4-1 1 \; on-4-2 1 \; on-4-3 1 \; on-4-4 1 \; on-4-5 1 \; on-4-6
1 \; on-4-7 1 \; on-4-8 1 \; on-4-9 1 \; on-4-10 1 \; on-4-11 1 \;
on-4-12 1 \; on-4-13 1 \; on-4-14 1 \; on-4-15 1 \; on-4-16 1 \; on-5-4
1 \; on-5-8 1 \; on-5-14 1 \; on-6-5 1 \; on-6-13 1 \; on-8-1 1 \;
on-8-3 1 \; on-8-5 1 \; on-8-7 1 \; on-8-9 1 \; on-8-11 1 \; on-8-13
1 \; on-8-15 1 \;;
#X obj 959 74 bng 15 250 50 0 empty empty empty 17 7 0 10 #fcfcfc #000000
#000000;
#X obj 959 53 r preset;
#X connect 0 0 1 0;
#X connect 5 0 0 0;
#X connect 6 0 5 0;
#X connect 11 0 12 0;
#X connect 12 0 13 0;
#X connect 12 1 14 0;
#X connect 12 2 15 0;
#X connect 12 3 16 0;
#X connect 17 0 0 0;
#X connect 19 0 11 0;
#X connect 20 0 17 0;
#X connect 31 0 40 0;
#X connect 32 0 41 0;
#X connect 32 0 49 0;
#X connect 33 0 30 0;
#X connect 34 0 47 0;
#X connect 35 0 46 0;
#X connect 36 0 44 0;
#X connect 37 0 43 0;
#X connect 38 0 45 0;
#X connect 39 0 42 0;
#X connect 41 0 34 0;
#X connect 41 0 35 0;
#X connect 41 0 36 0;
#X connect 41 0 37 0;
#X connect 41 0 38 0;
#X connect 41 0 31 0;
#X connect 41 0 33 0;
#X connect 41 0 39 0;
#X connect 41 0 10 0;
#X connect 48 0 34 0;
#X connect 48 0 35 0;
#X connect 48 0 36 0;
#X connect 48 0 37 0;
#X connect 48 0 38 0;
#X connect 48 0 31 0;
#X connect 48 0 33 0;
#X connect 48 0 39 0;
#X connect 48 0 50 0;
#X connect 49 0 9 0;
#X connect 50 0 51 0;
#X connect 51 0 48 0;
#X connect 52 0 183 0;
#X connect 53 0 183 0;
#X connect 54 0 183 0;
#X connect 55 0 183 0;
#X connect 56 0 183 0;
#X connect 57 0 183 0;
#X connect 58 0 183 0;
#X connect 59 0 183 0;
#X connect 60 0 183 0;
#X connect 61 0 183 0;
#X connect 62 0 183 0;
#X connect 63 0 183 0;
#X connect 64 0 183 0;
#X connect 65 0 183 0;
#X connect 66 0 183 0;
#X connect 67 0 183 0;
#X connect 68 0 181 0;
#X connect 69 0 181 0;
#X connect 70 0 181 0;
#X connect 71 0 181 0;
#X connect 72 0 181 0;
#X connect 73 0 181 0;
#X connect 74 0 181 0;
#X connect 75 0 181 0;
#X connect 76 0 181 0;
#X connect 77 0 181 0;
#X connect 78 0 181 0;
#X connect 79 0 181 0;
#X connect 80 0 181 0;
#X connect 81 0 181 0;
#X connect 82 0 181 0;
#X connect 83 0 181 0;
#X connect 84 0 185 0;
#X connect 85 0 185 0;
#X connect 86 0 185 0;
#X connect 87 0 185 0;
#X connect 88 0 185 0;
#X connect 89 0 185 0;
#X connect 90 0 185 0;
#X connect 91 0 185 0;
#X connect 92 0 185 0;
#X connect 93 0 185 0;
#X connect 94 0 185 0;
#X connect 95 0 185 0;
#X connect 96 0 185 0;
#X connect 97 0 185 0;
#X connect 98 0 185 0;
#X connect 99 0 185 0;
#X connect 100 0 187 0;
#X connect 101 0 187 0;
#X connect 102 0 187 0;
#X connect 103 0 187 0;
#X connect 104 0 187 0;
#X connect 105 0 187 0;
#X connect 106 0 187 0;
#X connect 107 0 187 0;
#X connect 108 0 187 0;
#X connect 109 0 187 0;
#X connect 110 0 187 0;
#X connect 111 0 187 0;
#X connect 112 0 187 0;
#X connect 113 0 187 0;
#X connect 114 0 187 0;
#X connect 115 0 187 0;
#X connect 116 0 191 0;
#X connect 117 0 191 0;
#X connect 118 0 191 0;
#X connect 119 0 191 0;
#X connect 120 0 191 0;
#X connect 121 0 191 0;
#X connect 122 0 191 0;
#X connect 123 0 191 0;
#X connect 124 0 191 0;
#X connect 125 0 191 0;
#X connect 126 0 191 0;
#X connect 127 0 191 0;
#X connect 128 0 191 0;
#X connect 129 0 191 0;
#X connect 130 0 191 0;
#X connect 131 0 191 0;
#X connect 132 0 190 0;
#X connect 133 0 190 0;
#X connect 134 0 190 0;
#X connect 135 0 190 0;
#X connect 136 0 190 0;
#X connect 137 0 190 0;
#X connect 138 0 190 0;
#X connect 139 0 190 0;
#X connect 140 0 190 0;
#X connect 141 0 190 0;
#X connect 142 0 190 0;
#X connect 143 0 190 0;
#X connect 144 0 190 0;
#X connect 145 0 190 0;
#X connect 146 0 190 0;
#X connect 147 0 190 0;
#X connect 148 0 194 0;
#X connect 149 0 194 0;
#X connect 150 0 194 0;
#X connect 151 0 194 0;
#X connect 152 0 194 0;
#X connect 153 0 194 0;
#X connect 154 0 194 0;
#X connect 155 0 194 0;
#X connect 156 0 194 0;
#X connect 157 0 194 0;
#X connect 158 0 194 0;
#X connect 159 0 194 0;
#X connect 160 0 194 0;
#X connect 161 0 194 0;
#X connect 162 0 194 0;
#X connect 163 0 194 0;
#X connect 164 0 195 0;
#X connect 165 0 195 0;
#X connect 166 0 195 0;
#X connect 167 0 195 0;
#X connect 168 0 195 0;
#X connect 169 0 195 0;
#X connect 170 0 195 0;
#X connect 171 0 195 0;
#X connect 172 0 195 0;
#X connect 173 0 195 0;
#X connect 174 0 195 0;
#X connect 175 0 195 0;
#X connect 176 0 195 0;
#X connect 177 0 195 0;
#X connect 178 0 195 0;
#X connect 179 0 195 0;
#X connect 180 0 52 0;
#X connect 180 0 67 1;
#X connect 180 1 52 1;
#X connect 180 1 53 0;
#X connect 180 2 53 1;
#X connect 180 2 54 0;
#X connect 180 3 54 1;
#X connect 180 3 55 0;
#X connect 180 4 55 1;
#X connect 180 4 56 0;
#X connect 180 5 56 1;
#X connect 180 5 57 0;
#X connect 180 6 57 1;
#X connect 180 6 58 0;
#X connect 180 7 58 1;
#X connect 180 7 59 0;
#X connect 180 8 59 1;
#X connect 180 8 60 0;
#X connect 180 9 60 1;
#X connect 180 9 61 0;
#X connect 180 10 61 1;
#X connect 180 10 62 0;
#X connect 180 11 62 1;
#X connect 180 11 63 0;
#X connect 180 12 63 1;
#X connect 180 12 64 0;
#X connect 180 13 64 1;
#X connect 180 13 65 0;
#X connect 180 14 65 1;
#X connect 180 14 66 0;
#X connect 180 15 66 1;
#X connect 180 15 67 0;
#X connect 182 0 68 0;
#X connect 182 0 83 1;
#X connect 182 1 68 1;
#X connect 182 1 69 0;
#X connect 182 2 69 1;
#X connect 182 2 70 0;
#X connect 182 3 70 1;
#X connect 182 3 71 0;
#X connect 182 4 71 1;
#X connect 182 4 72 0;
#X connect 182 5 72 1;
#X connect 182 5 73 0;
#X connect 182 6 73 1;
#X connect 182 6 74 0;
#X connect 182 7 74 1;
#X connect 182 7 75 0;
#X connect 182 8 75 1;
#X connect 182 8 76 0;
#X connect 182 9 76 1;
#X connect 182 9 77 0;
#X connect 182 10 77 1;
#X connect 182 10 78 0;
#X connect 182 11 78 1;
#X connect 182 11 79 0;
#X connect 182 12 79 1;
#X connect 182 12 80 0;
#X connect 182 13 80 1;
#X connect 182 13 81 0;
#X connect 182 14 81 1;
#X connect 182 14 82 0;
#X connect 182 15 82 1;
#X connect 182 15 83 0;
#X connect 184 0 84 0;
#X connect 184 0 99 1;
#X connect 184 1 84 1;
#X connect 184 1 85 0;
#X connect 184 2 85 1;
#X connect 184 2 86 0;
#X connect 184 3 86 1;
#X connect 184 3 87 0;
#X connect 184 4 87 1;
#X connect 184 4 88 0;
#X connect 184 5 88 1;
#X connect 184 5 89 0;
#X connect 184 6 89 1;
#X connect 184 6 90 0;
#X connect 184 7 90 1;
#X connect 184 7 91 0;
#X connect 184 8 91 1;
#X connect 184 8 92 0;
#X connect 184 9 92 1;
#X connect 184 9 93 0;
#X connect 184 10 93 1;
#X connect 184 10 94 0;
#X connect 184 11 94 1;
#X connect 184 11 95 0;
#X connect 184 12 95 1;
#X connect 184 12 96 0;
#X connect 184 13 96 1;
#X connect 184 13 97 0;
#X connect 184 14 97 1;
#X connect 184 14 98 0;
#X connect 184 15 98 1;
#X connect 184 15 99 0;
#X connect 186 0 100 0;
#X connect 186 0 115 1;
#X connect 186 1 100 1;
#X connect 186 1 101 0;
#X connect 186 2 101 1;
#X connect 186 2 102 0;
#X connect 186 3 102 1;
#X connect 186 3 103 0;
#X connect 186 4 103 1;
#X connect 186 4 104 0;
#X connect 186 5 104 1;
#X connect 186 5 105 0;
#X connect 186 6 105 1;
#X connect 186 6 106 0;
#X connect 186 7 106 1;
#X connect 186 7 107 0;
#X connect 186 8 107 1;
#X connect 186 8 108 0;
#X connect 186 9 108 1;
#X connect 186 9 109 0;
#X connect 186 10 109 1;
#X connect 186 10 110 0;
#X connect 186 11 110 1;
#X connect 186 11 111 0;
#X connect 186 12 111 1;
#X connect 186 12 112 0;
#X connect 186 13 112 1;
#X connect 186 13 113 0;
#X connect 186 14 113 1;
#X connect 186 14 114 0;
#X connect 186 15 114 1;
#X connect 186 15 115 0;
#X connect 188 0 132 0;
#X connect 188 0 147 1;
#X connect 188 1 132 1;
#X connect 188 1 133 0;
#X connect 188 2 133 1;
#X connect 188 2 134 0;
#X connect 188 3 134 1;
#X connect 188 3 135 0;
#X connect 188 4 135 1;
#X connect 188 4 136 0;
#X connect 188 5 136 1;
#X connect 188 5 137 0;
#X connect 188 6 137 1;
#X connect 188 6 138 0;
#X connect 188 7 138 1;
#X connect 188 7 139 0;
#X connect 188 8 139 1;
#X connect 188 8 140 0;
#X connect 188 9 140 1;
#X connect 188 9 141 0;
#X connect 188 10 141 1;
#X connect 188 10 142 0;
#X connect 188 11 142 1;
#X connect 188 11 143 0;
#X connect 188 12 143 1;
#X connect 188 12 144 0;
#X connect 188 13 144 1;
#X connect 188 13 145 0;
#X connect 188 14 145 1;
#X connect 188 14 146 0;
#X connect 188 15 146 1;
#X connect 188 15 147 0;
#X connect 189 0 116 0;
#X connect 189 0 131 1;
#X connect 189 1 116 1;
#X connect 189 1 117 0;
#X connect 189 2 117 1;
#X connect 189 2 118 0;
#X connect 189 3 118 1;
#X connect 189 3 119 0;
#X connect 189 4 119 1;
#X connect 189 4 120 0;
#X connect 189 5 120 1;
#X connect 189 5 121 0;
#X connect 189 6 121 1;
#X connect 189 6 122 0;
#X connect 189 7 122 1;
#X connect 189 7 123 0;
#X connect 189 8 123 1;
#X connect 189 8 124 0;
#X connect 189 9 124 1;
#X connect 189 9 125 0;
#X connect 189 10 125 1;
#X connect 189 10 126 0;
#X connect 189 11 126 1;
#X connect 189 11 127 0;
#X connect 189 12 127 1;
#X connect 189 12 128 0;
#X connect 189 13 128 1;
#X connect 189 13 129 0;
#X connect 189 14 129 1;
#X connect 189 14 130 0;
#X connect 189 15 130 1;
#X connect 189 15 131 0;
#X connect 192 0 164 0;
#X connect 192 0 179 1;
#X connect 192 1 164 1;
#X connect 192 1 165 0;
#X connect 192 2 165 1;
#X connect 192 2 166 0;
#X connect 192 3 166 1;
#X connect 192 3 167 0;
#X connect 192 4 167 1;
#X connect 192 4 168 0;
#X connect 192 5 168 1;
#X connect 192 5 169 0;
#X connect 192 6 169 1;
#X connect 192 6 170 0;
#X connect 192 7 170 1;
#X connect 192 7 171 0;
#X connect 192 8 171 1;
#X connect 192 8 172 0;
#X connect 192 9 172 1;
#X connect 192 9 173 0;
#X connect 192 10 173 1;
#X connect 192 10 174 0;
#X connect 192 11 174 1;
#X connect 192 11 175 0;
#X connect 192 12 175 1;
#X connect 192 12 176 0;
#X connect 192 13 176 1;
#X connect 192 13 177 0;
#X connect 192 14 177 1;
#X connect 192 14 178 0;
#X connect 192 15 178 1;
#X connect 192 15 179 0;
#X connect 193 0 148 0;
#X connect 193 0 163 1;
#X connect 193 1 148 1;
#X connect 193 1 149 0;
#X connect 193 2 149 1;
#X connect 193 2 150 0;
#X connect 193 3 150 1;
#X connect 193 3 151 0;
#X connect 193 4 151 1;
#X connect 193 4 152 0;
#X connect 193 5 152 1;
#X connect 193 5 153 0;
#X connect 193 6 153 1;
#X connect 193 6 154 0;
#X connect 193 7 154 1;
#X connect 193 7 155 0;
#X connect 193 8 155 1;
#X connect 193 8 156 0;
#X connect 193 9 156 1;
#X connect 193 9 157 0;
#X connect 193 10 157 1;
#X connect 193 10 158 0;
#X connect 193 11 158 1;
#X connect 193 11 159 0;
#X connect 193 12 159 1;
#X connect 193 12 160 0;
#X connect 193 13 160 1;
#X connect 193 13 161 0;
#X connect 193 14 161 1;
#X connect 193 14 162 0;
#X connect 193 15 162 1;
#X connect 193 15 163 0;
#X connect 196 0 180 0;
#X connect 196 0 182 0;
#X connect 196 0 184 0;
#X connect 196 0 186 0;
#X connect 196 0 189 0;
#X connect 196 0 188 0;
#X connect 196 0 193 0;
#X connect 196 0 192 0;
#X connect 198 0 197 0;
#X connect 199 0 198 0;
#X coords 0 -1 1 1 527 257 2 60 117;
